<svg width="140" height="44" fill="none" xmlns="http://www.w3.org/2000/svg"><path d="M4.544 8.279a21.414 21.414 0 00-4.11 8.906L12.178 2.127a21.358 21.358 0 00-7.634 6.152zM16.1 4.343a2.102 2.102 0 002.95-.363L22.147.009A21.73 21.73 0 0016.33.63l-.595.762a2.102 2.102 0 00.364 2.95zm8.962-.623a2.173 2.173 0 003.055-.377l1.398-1.796A20.923 20.923 0 0024.985.28l-.3.385a2.185 2.185 0 00.377 3.055zM10.668 22.19a2.173 2.173 0 00-3.055.378L1.77 30.055a21.218 21.218 0 002.335 4.083l6.942-8.9a2.17 2.17 0 00-.378-3.048z" fill="#C4C4C4"/><path d="M9.55 18.653l2.454 1.916a2.173 2.173 0 003.054-.378 2.173 2.173 0 00-.377-3.055l-2.454-1.915a1.403 1.403 0 01-.245-1.972l1.308-1.677a1.403 1.403 0 011.971-.245l2.454 1.915a2.173 2.173 0 003.055-.377 2.173 2.173 0 00-.378-3.055l-5.27-4.11a2.172 2.172 0 00-3.056.377L0 21.547a21.56 21.56 0 00.86 5.97l6.725-8.62a1.401 1.401 0 011.965-.244zm20.811.224l2.426 1.894c.615.476.72 1.363.245 1.972l-2.517 3.271a1.17 1.17 0 01-1.643.203 1.17 1.17 0 01-.203-1.643l1.063-1.328a2.173 2.173 0 00-.378-3.055 2.173 2.173 0 00-3.055.378l-3.117 3.97a2.172 2.172 0 00.377 3.055l5.271 4.11c.95.742 2.314.574 3.055-.377l6.466-8.333a2.213 2.213 0 00-.384-3.104l-2.426-1.894a1.403 1.403 0 01-.244-1.971l1.642-2.063a1.17 1.17 0 011.643-.203 1.17 1.17 0 01.203 1.643l-.105.133a2.173 2.173 0 00.378 3.055 2.173 2.173 0 003.054-.377l.51-.658a21.516 21.516 0 00-2.383-6.592c-.014-.02-.021-.042-.035-.063a21.436 21.436 0 00-3.118-4.208l-7.102 9.08a2.212 2.212 0 00.377 3.105zm-2.419-7.857a2.173 2.173 0 00-3.055.377l-7.92 10.108a2.173 2.173 0 00.377 3.055 2.173 2.173 0 003.055-.377l7.92-10.109c.735-.95.567-2.32-.377-3.055zm15.051 9.828l-6.592 8.41a2.173 2.173 0 00.377 3.055 2.172 2.172 0 003.055-.378l1.3-1.663a21.39 21.39 0 001.86-9.424zM28.942 9.642a2.173 2.173 0 003.055-.377l3.32-4.237c-.195-.16-.384-.328-.587-.482a21.043 21.043 0 00-3.02-1.964l-3.146 4.012a2.164 2.164 0 00.378 3.048zM16.344 25.895a2.173 2.173 0 00-3.055.378 2.173 2.173 0 00.378 3.055c.95.74 2.314.573 3.055-.378a2.172 2.172 0 00-.378-3.055zm8.047-17.833a2.173 2.173 0 00-.377-3.055 2.17 2.17 0 00-3.048.378 2.173 2.173 0 103.425 2.677zM12.633 30.607a2.173 2.173 0 00-3.055.378l-3.936 5.04a21.77 21.77 0 002.628 2.433c.21.16.42.315.63.468l4.11-5.264a2.173 2.173 0 00-.377-3.055z" fill="#C4C4C4"/><path d="M35.779 33.627a2.173 2.173 0 00-3.055.378L30.55 36.73a1.17 1.17 0 01-1.643.203l-6.019-4.698a.224.224 0 01-.042-.314 2.173 2.173 0 00-.377-3.055 2.173 2.173 0 00-3.055.377L10.878 40.2a21.166 21.166 0 004.11 1.803l4.335-5.55a1.17 1.17 0 111.846 1.44l-3.692 4.74c1.734.328 3.503.44 5.25.342l1.874-2.405a1.17 1.17 0 011.643-.203 1.17 1.17 0 01.202 1.643l-.405.517a21.412 21.412 0 008.794-4.145l1.328-1.699a2.179 2.179 0 00-.384-3.055zm19.791-1.873c.063-3.74.028-14.856.126-18.134.063-2.041 1.356-3.272 3.614-3.398.56-.028 2.223-.063 3.894-.063 1.664 0 3.306.028 3.83.063.616.028.93.462.93.895 0 .434-.307.867-.985.867h-.028c-.587-.028-2.657-.063-4.51-.063a52 52 0 00-2.838.063c-1.328.09-1.943.741-2.04 1.915-.064.77-.029 3.587-.064 5.404 0 .497.063.497 2.936.497 1.853 0 4.139-.028 4.852-.063.154 0 1.02-.028 1.02.895 0 .496-.342.985-.985.985h-.063c-.804-.063-2.503-.063-4.076-.063-3.642 0-3.705 0-3.705.497 0 1.887.028 6.242.028 8.493v1.238c-.028.552-.524.867-1.02.867-.462 0-.895-.28-.895-.867v-.028h-.021zm25.132-.028c0 .65-.525.958-1.049.958-.496 0-1.02-.308-1.02-.958v-.028c.062-3.46.09-7.291.09-11.024 0-3.335-.028-6.614-.09-9.487v-.028c0-.678.524-1.02 1.048-1.02.496 0 1.02.342 1.02.957v.028c-.027 3-.062 6.397-.062 9.913 0 3.523.028 7.166.063 10.654v.035zm18.441 1.028c-4.914 0-7.005-3.125-7.005-3.971 0-.546.483-.937 1-.937a.9.9 0 01.818.482c.88 1.608 2.761 2.643 5.215 2.643 2.915 0 4.978-1.853 4.978-4.125 0-1.454-.881-3.034-2.853-4.152-1.545-.88-3.215-1.699-4.851-2.517-2.244-1.125-3.335-3.062-3.335-4.942 0-2.608 2.062-5.069 5.851-5.069s6.04 2.154 6.04 3.125c0 .518-.426.972-.908.972-.301 0-.609-.154-.853-.517-.755-1.09-2.125-1.972-4.307-1.972-2.488 0-3.977 1.608-3.977 3.398 0 1.244.762 2.58 2.397 3.46 1.364.727 3.524 1.699 4.824 2.426 2.761 1.517 3.943 3.698 3.943 5.76 0 2.839-2.335 5.936-6.977 5.936zm21.364-19.686c-.154-.497-.406-.741-.615-.741-.217 0-.406.244-.462.769-.244 2.81-.867 14.366-1.02 18.749 0 .615-.525.895-1.021.895-.524 0-1.021-.308-1.021-.867v-.063c.217-5.53.958-14.828 1.203-19.427.091-1.42 1.111-2.196 2.195-2.196.93 0 1.887.588 2.286 1.762 1.608 4.726 4.048 13.5 5.467 17.512.125.342.279.496.461.496.496 0 .615-.433 6.082-17.854.433-1.356 1.454-1.979 2.44-1.979 1.139 0 2.223.832 2.258 2.412.091 4.11.713 14.639.985 19.155v.09c0 .616-.496.93-.985.93-.525 0-1.049-.307-1.084-.93-.342-4.543-.804-18.72-.804-18.72-.028-.497-.244-.77-.524-.77-.217 0-.496.217-.65.742-1.3 4.292-4.327 13.932-5.872 18.043-.343.867-1.112 1.356-1.881 1.356-.741 0-1.454-.434-1.825-1.356-.943-2.629-4.376-14.268-5.613-18.008z" fill="#C4C4C4"/></svg>